<?xml version="1.0" standalone="no"?>
<!DOCTYPE svg PUBLIC "-//W3C//DTD SVG 20010904//EN"
 "http://www.w3.org/TR/2001/REC-SVG-20010904/DTD/svg10.dtd">
<svg version="1.0" xmlns="http://www.w3.org/2000/svg"
 width="85.000000pt" height="85.000000pt" viewBox="0 0 85.000000 85.000000"
 preserveAspectRatio="xMidYMid meet">
<metadata>
Created by potrace 1.11, written by Peter Selinger 2001-2013
</metadata>
<g transform="translate(0.000000,85.000000) scale(0.100000,-0.100000)"
fill="#000000" stroke="none">
<path d="M315 797 c-109 -37 -195 -112 -242 -212 -25 -53 -28 -71 -28 -160 0
-89 3 -107 28 -161 36 -77 113 -154 192 -191 53 -25 71 -28 160 -28 93 0 105
2 166 32 80 39 150 111 187 191 24 50 27 69 27 157 0 88 -3 107 -27 158 -38
81 -115 158 -191 193 -73 33 -204 43 -272 21z m224 -16 c116 -36 210 -132 245
-250 84 -282 -181 -547 -465 -465 -116 33 -214 129 -250 245 -91 292 178 561
470 470z"/>
<path d="M335 757 c-74 -25 -122 -56 -169 -108 -151 -168 -91 -438 119 -536
86 -40 194 -40 280 0 78 36 137 95 172 171 23 51 28 75 28 141 0 95 -28 166
-94 238 -78 84 -234 128 -336 94z m55 -182 l30 -16 0 -142 0 -142 -87 0 c-49
0 -98 -4 -110 -8 l-23 -8 0 151 0 151 33 14 c43 19 121 19 157 0z m221 3 l39
-11 0 -154 0 -153 -27 7 c-16 5 -65 8 -111 8 l-82 0 0 142 0 142 28 15 c33 18
101 20 153 4z"/>
</g>
</svg>
